REM DIRINDEX 1\2,1\3,1\4,1\5
REM DIRNAME cjc005,folder01,folder02,folder03,folder04
TITLE ""
FILE "P1Q_t_0382-0391.mp3" MP3
  TRACK 01 AUDIO
    TITLE "3:cjc005_2048"
    INDEX 01 00:00:00
  TRACK 02 AUDIO
    TITLE "0:"
    INDEX 01 00:01:19
  TRACK 03 AUDIO
    TITLE "4:cjc005_2049"
    INDEX 01 00:01:50
  TRACK 04 AUDIO
    TITLE "0:"
    INDEX 01 00:02:73
  TRACK 05 AUDIO
    TITLE "5:cjc005_2050"
    INDEX 01 00:03:25
  TRACK 06 AUDIO
    TITLE "0:"
    INDEX 01 00:07:60
  TRACK 07 AUDIO
    TITLE "3:cjc005_2051"
    INDEX 01 00:08:34
  TRACK 08 AUDIO
    TITLE "0:"
    INDEX 01 00:09:67
  TRACK 09 AUDIO
    TITLE "4:cjc005_2052"
    INDEX 01 00:10:19
  TRACK 10 AUDIO
    TITLE "0:"
    INDEX 01 00:11:42
  TRACK 11 AUDIO
    TITLE "5:cjc005_2053"
    INDEX 01 00:11:62
  TRACK 12 AUDIO
    TITLE "0:"
    INDEX 01 00:16:42
  TRACK 13 AUDIO
    TITLE "3:cjc005_2054"
    INDEX 01 00:17:21
  TRACK 14 AUDIO
    TITLE "0:"
    INDEX 01 00:18:27
  TRACK 15 AUDIO
    TITLE "4:cjc005_2055"
    INDEX 01 00:18:52
  TRACK 16 AUDIO
    TITLE "0:"
    INDEX 01 00:20:36
  TRACK 17 AUDIO
    TITLE "5:cjc005_2056"
    INDEX 01 00:20:55
  TRACK 18 AUDIO
    TITLE "0:"
    INDEX 01 00:23:71
  TRACK 19 AUDIO
    TITLE "3:cjc005_2057"
    INDEX 01 00:24:53
  TRACK 20 AUDIO
    TITLE "0:"
    INDEX 01 00:25:68
  TRACK 21 AUDIO
    TITLE "4:cjc005_2058"
    INDEX 01 00:26:24
  TRACK 22 AUDIO
    TITLE "0:"
    INDEX 01 00:27:28
  TRACK 23 AUDIO
    TITLE "5:cjc005_2059"
    INDEX 01 00:27:53
  TRACK 24 AUDIO
    TITLE "0:"
    INDEX 01 00:32:09
  TRACK 25 AUDIO
    TITLE "3:cjc005_2060"
    INDEX 01 00:32:60
  TRACK 26 AUDIO
    TITLE "0:"
    INDEX 01 00:34:18
  TRACK 27 AUDIO
    TITLE "4:cjc005_2061"
    INDEX 01 00:34:45
  TRACK 28 AUDIO
    TITLE "0:"
    INDEX 01 00:36:09
  TRACK 29 AUDIO
    TITLE "5:cjc005_2062"
    INDEX 01 00:36:35
  TRACK 30 AUDIO
    TITLE "0:"
    INDEX 01 00:39:64
  TRACK 31 AUDIO
    TITLE "3:cjc005_2063"
    INDEX 01 00:40:40
  TRACK 32 AUDIO
    TITLE "0:"
    INDEX 01 00:41:59
  TRACK 33 AUDIO
    TITLE "4:cjc005_2064"
    INDEX 01 00:42:12
  TRACK 34 AUDIO
    TITLE "0:"
    INDEX 01 00:43:52
  TRACK 35 AUDIO
    TITLE "5:cjc005_2065"
    INDEX 01 00:44:05
  TRACK 36 AUDIO
    TITLE "0:"
    INDEX 01 00:48:49
  TRACK 37 AUDIO
    TITLE "3:cjc005_2066"
    INDEX 01 00:49:27
  TRACK 38 AUDIO
    TITLE "0:"
    INDEX 01 00:50:50
  TRACK 39 AUDIO
    TITLE "4:cjc005_2067"
    INDEX 01 00:51:03
  TRACK 40 AUDIO
    TITLE "0:"
    INDEX 01 00:52:04
  TRACK 41 AUDIO
    TITLE "5:cjc005_2068"
    INDEX 01 00:52:32
  TRACK 42 AUDIO
    TITLE "0:"
    INDEX 01 00:57:17
  TRACK 43 AUDIO
    TITLE "3:cjc005_2069"
    INDEX 01 00:57:72
  TRACK 44 AUDIO
    TITLE "0:"
    INDEX 01 00:59:24
  TRACK 45 AUDIO
    TITLE "4:cjc005_2070"
    INDEX 01 00:59:47
  TRACK 46 AUDIO
    TITLE "0:"
    INDEX 01 01:00:70
  TRACK 47 AUDIO
    TITLE "5:cjc005_2071"
    INDEX 01 01:01:17
  TRACK 48 AUDIO
    TITLE "0:"
    INDEX 01 01:05:42
  TRACK 49 AUDIO
    TITLE "3:cjc005_2072"
    INDEX 01 01:06:26
  TRACK 50 AUDIO
    TITLE "0:"
    INDEX 01 01:07:35
  TRACK 51 AUDIO
    TITLE "4:cjc005_2073"
    INDEX 01 01:07:61
  TRACK 52 AUDIO
    TITLE "0:"
    INDEX 01 01:09:14
  TRACK 53 AUDIO
    TITLE "5:cjc005_2074"
    INDEX 01 01:09:42
  TRACK 54 AUDIO
    TITLE "0:"
    INDEX 01 01:13:32
  TRACK 55 AUDIO
    TITLE "3:cjc005_2075"
    INDEX 01 01:14:14
  TRACK 56 AUDIO
    TITLE "0:"
    INDEX 01 01:15:27
  TRACK 57 AUDIO
    TITLE "4:cjc005_2076"
    INDEX 01 01:15:54
  TRACK 58 AUDIO
    TITLE "0:"
    INDEX 01 01:17:00
  TRACK 59 AUDIO
    TITLE "5:cjc005_2077"
    INDEX 01 01:17:22
  TRACK 60 AUDIO
    TITLE "0:"
    INDEX 01 01:21:16
